<?xml version="1.0" encoding="utf-8"?>
<!-- Svg Vector Icons : http://www.onlinewebfonts.com/icon -->
<!DOCTYPE svg PUBLIC "-//W3C//DTD SVG 1.1//EN" "http://www.w3.org/Graphics/SVG/1.1/DTD/svg11.dtd">
<svg version="1.1" xmlns="http://www.w3.org/2000/svg" xmlns:xlink="http://www.w3.org/1999/xlink" x="0px" y="0px" viewBox="0 0 1000 1000" enable-background="new 0 0 1000 1000" xml:space="preserve">
<metadata> Svg Vector Icons : http://www.onlinewebfonts.com/icon </metadata>
<g><path d="M972.2,356l-429.3,229c-23.7,12.7-62.1,12.7-85.9,0L103.3,396.3v217.9c0,9.1-7.4,16.5-16.5,16.5H53.7c-9.1,0-16.5-7.4-16.5-16.5V361l-9.4-5c-23.7-12.6-23.7-33.2,0-45.8L457,81.3c23.8-12.7,62.2-12.7,85.9,0l429.3,229C995.9,322.8,995.9,343.4,972.2,356z M813.2,315.9L531.5,177.3c-17.4-9.5-45.6-9.5-62.9,0L186.8,315.9c-17.4,9.5-17.4,24.9,0,34.4l281.7,138.6c17.4,9.5,45.5,9.5,62.9,0l281.8-138.6C830.6,340.8,830.6,325.4,813.2,315.9z M268.6,696.8C268.6,797,449.6,829,500,829c50.4,0,231.5-29.3,231.5-132.2l1.7-132.2l97.5-66.1l1.8,229.2c0,131.3-167.3,200.7-321.6,200.7c-160.8,0-341.4-68.1-341.4-198.4V498.4l99.2,66.1L268.6,696.8z"/></g>
</svg>